<?xml version="1.0" standalone="no"?>
<!DOCTYPE svg PUBLIC "-//W3C//DTD SVG 20010904//EN"
 "http://www.w3.org/TR/2001/REC-SVG-20010904/DTD/svg10.dtd">
<svg version="1.0" xmlns="http://www.w3.org/2000/svg"
 width="300.000000pt" height="300.000000pt" viewBox="0 0 300.000000 300.000000"
 preserveAspectRatio="xMidYMid meet">
<metadata>
Created by potrace 1.14, written by Peter Selinger 2001-2017
</metadata>
<g transform="translate(0.000000,300.000000) scale(0.100000,-0.100000)"
fill="#000000" stroke="none">
<path d="M1463 2985 c-11 -8 -31 -39 -43 -69 l-23 -54 -68 -6 c-38 -4 -71 -11
-74 -17 -4 -5 -24 -9 -45 -9 -53 0 -159 -28 -192 -51 -14 -11 -31 -19 -36 -19
-24 0 -152 -72 -163 -91 -11 -21 -11 -21 -38 5 -35 34 -57 33 -116 -6 -27 -18
-63 -41 -80 -50 -28 -15 -58 -51 -100 -123 -10 -16 -12 -16 -42 1 -40 24 -72
10 -110 -46 -16 -23 -42 -56 -60 -75 -17 -18 -37 -52 -44 -76 -7 -24 -23 -57
-35 -72 -13 -15 -26 -44 -29 -65 -3 -20 -10 -44 -16 -52 -22 -35 -39 -81 -39
-110 0 -24 -8 -35 -40 -55 -52 -33 -74 -75 -66 -129 3 -22 8 -55 10 -72 2 -18
9 -41 15 -52 11 -21 5 -79 -10 -88 -14 -9 -10 -69 8 -110 11 -26 16 -64 15
-114 -1 -63 3 -81 23 -111 16 -25 24 -50 23 -79 0 -23 5 -47 11 -53 6 -6 11
-20 11 -30 0 -11 23 -41 50 -68 33 -32 50 -57 50 -72 0 -14 8 -35 19 -48 10
-13 21 -34 25 -46 4 -12 25 -36 47 -53 21 -18 39 -37 39 -44 0 -26 53 -112 86
-139 18 -15 42 -48 53 -73 11 -24 28 -47 38 -51 10 -3 30 -17 45 -29 15 -12
41 -25 58 -29 22 -5 34 -16 44 -40 17 -40 43 -56 99 -59 35 -2 41 -5 39 -21
-2 -11 -12 -30 -23 -43 -46 -59 -9 -160 67 -181 33 -9 115 -2 154 13 11 4 24
-10 45 -51 41 -80 53 -80 274 -3 l176 61 173 -61 c227 -79 235 -78 281 6 17
30 33 48 42 45 8 -2 48 -6 89 -8 63 -4 80 -1 107 16 43 27 60 85 39 134 -8 19
-19 38 -25 41 -6 4 -11 17 -11 29 0 19 6 22 39 22 45 1 88 26 101 61 6 14 27
33 52 45 73 34 116 70 132 109 8 21 31 51 51 66 24 18 48 52 70 99 19 41 44
79 60 89 14 9 31 29 38 44 7 15 20 35 30 44 9 10 17 32 17 49 0 24 11 42 50
79 28 27 50 56 50 64 0 9 7 28 16 41 10 16 14 34 10 50 -5 18 1 39 19 69 14
23 25 54 25 67 0 13 0 42 0 63 0 21 -1 41 -4 43 -2 3 4 23 15 46 23 51 24 93
3 142 -13 31 -13 43 -3 67 12 30 15 43 25 128 5 49 -20 105 -54 117 -35 12
-52 36 -52 73 0 23 -9 51 -25 74 -14 20 -25 45 -25 56 0 27 -18 72 -39 95 -10
11 -23 40 -30 64 -7 25 -25 56 -40 70 -15 14 -37 43 -50 63 -44 72 -95 95
-134 61 -19 -17 -20 -17 -31 1 -55 91 -70 109 -99 121 -19 8 -40 21 -47 30
-18 22 -84 55 -109 55 -11 0 -29 -12 -40 -26 l-21 -27 -20 25 c-11 14 -37 33
-57 42 -21 9 -45 20 -53 25 -75 46 -211 91 -271 91 -17 0 -39 5 -50 10 -10 6
-48 13 -83 17 l-63 6 -23 53 c-21 51 -51 84 -75 84 -6 0 -20 -7 -32 -15z m77
-141 c10 -30 16 -34 45 -34 43 0 85 -16 85 -32 0 -7 -18 -28 -40 -48 -40 -34
-40 -36 -29 -73 19 -68 -6 -85 -70 -46 l-34 20 -42 -22 c-66 -35 -87 -16 -66
59 9 30 7 34 -30 64 -21 17 -39 37 -39 45 0 17 41 33 84 33 28 0 34 5 45 35 7
19 19 42 28 50 14 14 17 14 34 -1 10 -9 23 -32 29 -50z m-344 -93 c-21 -23
-83 -57 -91 -49 -20 19 39 67 84 68 23 0 23 -1 7 -19z m662 -1 c19 -12 32 -28
32 -40 0 -21 0 -21 -40 1 -22 13 -48 31 -57 41 -15 17 -15 18 8 18 13 0 39 -9
57 -20z m-768 -9 c0 -19 -52 -71 -71 -71 -17 0 -18 3 -9 21 6 11 26 29 43 39
37 23 37 23 37 11z m863 -22 c41 -34 47 -49 18 -49 -19 0 -71 52 -71 71 0 16
14 10 53 -22z m-630 -95 c-18 -68 -11 -101 23 -116 23 -11 34 -8 89 21 l63 34
45 -27 c54 -31 97 -33 122 -6 16 17 16 25 4 85 l-13 66 30 24 c16 13 34 24 39
25 14 0 80 -70 88 -93 4 -10 21 -25 38 -35 17 -9 47 -29 67 -44 21 -15 57 -42
81 -60 67 -50 126 -109 145 -146 9 -18 23 -35 31 -38 15 -6 28 -44 30 -89 0
-16 4 -43 8 -60 6 -26 4 -32 -23 -47 -16 -9 -30 -25 -30 -35 0 -10 -17 12 -37
47 -21 36 -74 101 -118 145 -238 236 -594 279 -888 108 -79 -46 -205 -171
-246 -245 l-32 -56 -23 22 c-12 13 -28 25 -36 28 -10 3 -11 11 -1 41 7 20 10
46 6 56 -7 23 14 68 44 95 12 11 21 24 21 31 0 7 14 26 30 43 17 18 30 36 30
41 0 5 9 13 20 16 11 4 41 23 65 43 70 58 97 78 132 96 18 9 40 29 50 44 9 15
32 44 51 64 l35 37 37 -30 37 -30 -14 -55z m-353 32 c-6 -20 -20 -41 -30 -46
-26 -14 -30 -13 -30 9 0 18 59 85 68 77 2 -3 -1 -21 -8 -40z m1094 0 c15 -23
22 -56 12 -56 -28 0 -66 49 -66 85 0 22 32 4 54 -29z m-963 -6 c-24 -21 -71
-27 -71 -10 0 15 32 29 65 29 l30 0 -24 -19z m840 10 c10 -6 19 -16 19 -22 0
-15 -61 -2 -80 17 -13 13 -11 15 14 15 15 0 36 -5 47 -10z m-1045 -26 c-3 -9
-6 -21 -6 -28 0 -23 -42 -68 -52 -58 -12 12 -3 43 23 76 23 29 45 35 35 10z
m1242 -24 c22 -33 26 -59 8 -63 -13 -3 -43 43 -50 76 -9 38 11 32 42 -13z
m-1412 3 c-18 -35 -62 -83 -76 -83 -22 0 -8 34 29 71 46 47 68 52 47 12z
m1590 -15 c32 -35 48 -68 32 -68 -17 1 -38 18 -66 54 -44 58 -16 70 34 14z
m-1276 7 c0 -10 -60 -35 -85 -35 -31 0 -33 18 -2 30 23 9 87 13 87 5z m1013
-14 c6 -6 8 -14 4 -17 -10 -10 -71 5 -93 22 -18 14 -16 15 29 11 27 -3 54 -10
60 -16z m-1263 -10 c0 -15 -66 -81 -81 -81 -7 0 7 20 31 45 47 48 50 50 50 36z
m1500 -78 c0 -13 -29 3 -56 33 -51 53 -41 65 11 14 25 -24 45 -45 45 -47z
m-1480 48 c0 -32 -40 -97 -55 -90 -5 2 -8 11 -7 19 4 18 51 100 57 100 3 0 5
-13 5 -29z m1405 -14 c26 -45 32 -77 15 -77 -16 0 -50 62 -50 93 0 15 2 27 5
27 2 0 16 -20 30 -43z m-1619 -42 c-18 -46 -50 -82 -60 -66 -9 13 11 60 42
100 32 42 40 26 18 -34z m1811 48 c48 -61 68 -146 26 -112 -30 25 -68 129 -47
129 4 0 13 -8 21 -17z m-1457 -2 c0 -11 -80 -51 -103 -51 -37 0 -9 35 40 50
38 11 63 12 63 1z m1188 -17 c25 -16 29 -34 7 -34 -21 0 -105 42 -105 53 0 13
70 -1 98 -19z m-1480 -40 c-37 -33 -58 -43 -58 -26 0 11 38 46 65 60 35 18 31
2 -7 -34z m1705 8 c28 -26 34 -42 17 -42 -12 0 -80 60 -80 71 0 13 33 -2 63
-29z m-1638 -54 c-4 -18 -17 -46 -29 -63 l-21 -30 -3 28 c-3 28 32 97 50 97 6
0 7 -13 3 -32z m119 11 c-20 -22 -66 -49 -84 -49 -18 0 -11 25 12 39 21 13 62
28 82 30 5 1 1 -8 -10 -20z m1374 -11 c23 -14 30 -24 23 -31 -14 -14 -62 7
-93 40 l-23 26 30 -7 c17 -4 45 -17 63 -28z m81 -1 c24 -39 30 -70 16 -76 -12
-5 -41 42 -50 82 -10 38 9 34 34 -6z m-1892 -33 c-10 -58 -57 -100 -57 -50 0
22 43 86 57 86 3 0 3 -16 0 -36z m203 7 c-12 -24 -58 -57 -67 -48 -11 11 6 37
39 57 37 22 44 20 28 -9z m1744 7 c18 -26 20 -38 6 -38 -5 0 -16 14 -25 30
-18 35 -4 41 19 8z m79 -16 c19 -17 23 -42 6 -42 -14 0 -69 55 -69 70 0 12 33
-2 63 -28z m186 4 c24 -38 27 -76 7 -76 -16 0 -46 58 -46 89 0 31 15 26 39
-13z m-2099 -6 c0 -29 -22 -70 -37 -70 -18 0 -17 25 3 66 17 35 34 37 34 4z
m118 -19 c-25 -32 -38 -38 -38 -19 0 17 54 71 58 59 2 -6 -7 -24 -20 -40z
m1030 25 c226 -61 407 -242 468 -467 23 -84 23 -232 0 -318 -60 -222 -232
-397 -461 -467 -84 -25 -277 -25 -360 0 -154 46 -289 144 -374 272 -76 113
-105 210 -105 354 0 98 5 127 27 196 72 217 265 390 492 439 82 17 231 13 313
-9z m848 -45 c8 -37 -8 -41 -30 -9 -16 23 -21 60 -9 71 9 10 32 -27 39 -62z
m-1737 3 c-14 -17 -62 -44 -79 -44 -5 0 -10 5 -10 10 0 14 60 50 84 50 16 0
16 -2 5 -16z m1505 -14 c11 -11 17 -22 13 -26 -9 -10 -63 15 -84 38 -18 21
-18 21 17 14 19 -3 44 -15 54 -26z m-1869 -27 c-16 -39 -52 -83 -67 -83 -4 0
-8 10 -8 21 0 19 68 99 84 99 3 0 -1 -17 -9 -37z m231 -5 c-3 -18 -16 -46 -27
-61 -23 -31 -22 -61 2 -32 35 44 71 73 94 77 37 7 31 -6 -22 -49 -127 -104
-158 -163 -208 -393 -28 -126 -44 -175 -45 -135 0 51 83 352 117 418 8 16 23
62 34 104 10 42 24 82 30 89 20 24 32 16 25 -18z m1749 -46 c3 -20 15 -59 26
-87 55 -135 129 -398 129 -460 0 -32 -18 2 -25 50 -13 83 -65 274 -88 327 -16
35 -40 67 -67 89 -79 63 -120 101 -120 110 0 19 76 -23 107 -59 39 -45 41 -39
7 27 -17 31 -24 57 -19 68 6 17 8 16 25 -5 11 -13 22 -40 25 -60z m224 43 c29
-33 42 -75 23 -75 -19 0 -72 74 -72 99 0 20 18 11 49 -24z m-2161 -43 c-2 -26
-8 -38 -20 -40 -21 -4 -24 28 -7 78 10 27 13 30 21 16 5 -9 8 -33 6 -54z m102
56 c0 -16 -41 -58 -57 -58 -19 0 -16 11 14 42 29 30 43 35 43 16z m1913 -13
c29 -27 35 -45 15 -45 -16 0 -58 41 -58 57 0 19 12 16 43 -12z m97 -57 c0 -18
-5 -28 -14 -28 -24 0 -35 56 -19 96 6 16 9 14 19 -11 7 -17 13 -42 14 -57z
m-2261 -39 c-14 -35 -39 -38 -39 -5 0 28 19 85 34 105 16 21 21 -63 5 -100z
m2395 64 c18 -53 20 -89 6 -98 -15 -10 -40 51 -40 100 0 58 14 57 34 -2z
m-244 -30 c0 -20 -17 -16 -34 9 -26 37 -20 55 9 28 14 -13 25 -29 25 -37z
m-1887 15 c-9 -18 -16 -40 -15 -48 3 -19 -53 -88 -64 -77 -4 4 7 25 25 47 17
22 27 40 21 40 -16 0 -12 15 11 44 29 36 43 33 22 -6z m-63 -36 c0 -22 -25
-59 -51 -72 -29 -16 -25 21 7 59 29 35 44 39 44 13z m2014 -13 c32 -38 36 -75
7 -59 -26 13 -51 50 -51 72 0 26 15 22 44 -13z m-2114 -39 c0 -50 -15 -74 -31
-49 -4 8 -6 24 -4 36 3 13 7 34 10 48 9 41 25 18 25 -35z m2202 -3 c2 -48 -4
-63 -21 -52 -12 7 -15 97 -4 109 13 13 23 -10 25 -57z m-130 1 c23 -32 18 -48
-8 -27 -10 8 -1 -8 19 -34 37 -48 45 -67 29 -67 -26 0 -76 82 -67 109 3 10 -1
24 -10 31 -8 7 -15 19 -15 27 0 20 21 3 52 -39z m-2127 15 c-10 -40 -44 -93
-61 -93 -23 0 -16 34 16 78 35 49 55 55 45 15z m366 -6 c-13 -33 -71 -98 -82
-91 -12 7 13 53 51 94 34 36 45 36 31 -3z m1594 -13 c19 -26 35 -56 35 -67 0
-20 -1 -19 -26 4 -23 21 -64 88 -64 104 0 17 24 -1 55 -41z m370 -4 c27 -36
33 -70 13 -70 -16 0 -55 59 -64 96 -6 22 -4 25 9 17 9 -4 28 -24 42 -43z
m-2425 -47 c0 -51 -8 -73 -26 -73 -17 0 -20 91 -3 122 15 29 29 6 29 -49z
m2510 -20 c0 -39 -4 -53 -14 -53 -8 0 -17 7 -20 16 -8 21 -8 88 1 110 12 31
33 -15 33 -73z m-2230 41 c0 -21 -56 -94 -72 -94 -15 0 -9 16 22 58 26 37 50
54 50 36z m-165 -60 c8 -57 -9 -82 -25 -38 -12 31 -5 98 9 89 5 -2 12 -26 16
-51z m95 47 c0 -14 -44 -74 -57 -79 -22 -7 -14 25 13 57 25 30 44 40 44 22z
m2094 -22 c27 -32 35 -64 14 -57 -14 5 -58 65 -58 79 0 18 19 8 44 -22z m80
-57 c-5 -15 -14 -27 -19 -27 -16 0 -17 30 -4 77 l12 43 10 -33 c7 -21 7 -43 1
-60z m-2038 32 c7 -48 -8 -100 -26 -89 -6 3 -10 28 -10 55 0 87 24 111 36 34z
m1816 -5 c10 -73 -8 -114 -32 -70 -18 35 -8 125 14 118 6 -2 14 -24 18 -48z
m-1712 26 c0 -3 -11 -22 -24 -43 -48 -76 -100 -98 -61 -26 24 45 85 94 85 69z
m1618 -20 c30 -25 60 -81 49 -92 -9 -8 -35 15 -69 61 -44 60 -34 76 20 31z
m-2038 -72 c-13 -29 -22 -72 -23 -110 -1 -44 -8 -69 -23 -89 -51 -68 -62 -9
-15 80 23 42 26 56 15 56 -31 0 -12 63 35 113 35 38 40 15 11 -50z m480 2 c-5
-22 -10 -59 -10 -82 0 -23 -4 -45 -10 -48 -6 -4 -5 -13 2 -25 9 -14 9 -28 0
-58 -16 -53 -14 -74 3 -37 l13 30 1 -33 c1 -18 -9 -61 -21 -96 -21 -60 -20
-96 2 -96 7 0 6 6 -1 18 -9 14 -8 27 6 56 10 20 19 35 21 33 3 -2 11 -30 19
-62 13 -47 13 -60 3 -67 -7 -4 -19 -6 -26 -3 -8 3 -20 5 -28 5 -7 0 -21 12
-30 26 -16 24 -16 29 0 80 15 46 15 63 6 109 -13 60 -11 71 8 69 7 -1 11 3 9
10 -2 6 -20 11 -40 11 -21 0 -37 1 -37 2 0 1 9 17 20 35 11 19 29 63 40 98 32
101 29 96 45 79 11 -11 12 -23 5 -54z m1495 -7 c10 -32 17 -60 15 -64 -1 -4 2
-10 7 -13 5 -3 15 -19 23 -36 8 -16 16 -32 17 -35 2 -3 -13 -5 -34 -5 -20 0
-38 -5 -40 -12 -3 -7 3 -9 18 -6 17 5 20 2 16 -13 -27 -88 -28 -111 -12 -168
15 -52 15 -59 1 -81 -15 -23 -38 -31 -76 -25 -22 3 -21 2 -8 61 15 72 21 76
44 34 16 -30 17 -38 6 -56 -11 -18 -11 -20 0 -17 22 8 20 42 -7 113 -14 37
-25 76 -25 86 0 28 19 23 26 -6 4 -14 9 -24 11 -21 3 3 0 28 -7 56 -9 38 -9
54 -1 64 8 10 9 16 1 21 -5 3 -10 25 -10 48 0 23 -4 58 -9 78 -8 37 4 79 19
62 4 -4 15 -34 25 -65z m452 50 c42 -46 58 -108 29 -108 -11 0 -8 -14 15 -56
46 -89 36 -148 -15 -81 -15 20 -21 44 -22 90 -1 34 -8 76 -16 92 -20 39 -31
85 -20 85 5 0 18 -10 29 -22z m-2507 -71 c0 -51 -15 -91 -31 -82 -13 9 -11
129 3 143 18 18 28 -4 28 -61z m2610 -13 c0 -66 -12 -88 -29 -55 -12 21 -15
100 -5 125 5 13 9 14 20 5 9 -8 14 -33 14 -75z m-2329 34 c-13 -37 -50 -80
-62 -72 -10 6 3 35 38 82 30 40 40 36 24 -10z m2039 0 c16 -22 30 -50 30 -61
0 -20 0 -20 -21 -1 -29 26 -62 104 -44 104 3 0 18 -19 35 -42z m-2180 -40 c0
-41 -13 -49 -30 -19 -12 23 -13 74 -3 85 13 13 33 -27 33 -66z m80 56 c0 -8
-5 -25 -12 -37 -6 -12 -11 -38 -10 -57 2 -37 -29 -100 -49 -100 -17 0 -3 56
23 93 18 25 19 29 5 24 -23 -9 -21 7 5 54 23 41 38 50 38 23z m2168 -17 c23
-35 29 -67 12 -67 -14 0 -50 60 -50 83 0 26 12 21 38 -16z m82 -7 c0 -39 -18
-83 -30 -75 -13 8 -13 71 1 96 13 26 29 15 29 -21z m-2112 -74 c-2 -28 -8 -41
-18 -41 -17 0 -26 80 -14 124 l7 26 14 -34 c8 -18 13 -52 11 -75z m1895 56 c8
-46 -5 -97 -24 -97 -10 0 -14 13 -14 50 1 85 27 118 38 47z m-1803 -8 c0 -11
-23 -50 -43 -71 -22 -25 -39 -22 -30 5 12 33 73 89 73 66z m1719 -29 c18 -21
28 -41 24 -50 -5 -14 -8 -14 -25 2 -18 16 -48 64 -48 78 0 14 21 2 49 -30z
m248 -52 c15 -38 17 -63 3 -63 -16 0 -40 45 -47 86 -6 37 -5 38 12 24 10 -8
24 -29 32 -47z m73 14 c0 -52 -22 -89 -41 -69 -11 10 -10 19 0 50 13 35 29 62
37 62 2 0 4 -19 4 -43z m-2370 -15 c11 -33 12 -44 2 -54 -19 -19 -33 3 -40 57
-6 61 16 59 38 -3z m116 -36 c-19 -45 -41 -49 -33 -6 4 16 14 42 24 57 17 26
18 26 21 6 2 -11 -4 -37 -12 -57z m2118 30 c18 -39 21 -66 5 -66 -12 0 -39 61
-39 90 0 28 14 18 34 -24z m-2390 -29 c9 -26 16 -57 16 -68 0 -24 -29 -37 -40
-19 -22 35 -21 166 0 143 5 -4 15 -30 24 -56z m2678 2 c1 -30 -2 -64 -6 -77
-9 -28 -40 -26 -44 4 -3 21 37 139 44 131 2 -2 5 -28 6 -58z m-2747 -6 c3 -21
9 -48 12 -60 6 -28 -12 -30 -39 -6 -20 18 -23 54 -8 84 16 29 27 23 35 -18z
m12 15 c-3 -8 -6 -5 -6 6 -1 11 2 17 5 13 3 -3 4 -12 1 -19z m413 3 c13 -25
13 -98 1 -106 -16 -9 -31 30 -31 79 0 48 12 59 30 27z m1960 -25 c0 -54 -8
-76 -26 -76 -17 0 -19 55 -4 94 15 40 30 31 30 -18z m387 22 c-3 -8 -6 -5 -6
6 -1 11 2 17 5 13 3 -3 4 -12 1 -19z m53 -37 c0 -27 -26 -61 -47 -61 -15 0
-10 48 9 100 9 24 10 24 24 6 8 -11 14 -31 14 -45z m-2300 20 c-11 -39 -25
-63 -49 -85 -21 -19 -21 -19 -21 11 0 17 10 43 22 59 40 52 61 58 48 15z
m1752 17 c26 -21 48 -61 48 -86 0 -46 -51 3 -69 66 -10 34 -4 40 21 20z
m-1693 -65 c18 -65 14 -111 -14 -138 -33 -34 -57 -33 -49 0 4 14 2 25 -4 25
-13 0 -1 49 13 52 5 2 16 -10 23 -25 8 -16 16 -26 19 -24 2 3 -3 19 -11 36
-17 31 -20 68 -10 95 10 26 22 18 33 -21z m1648 14 c8 -17 7 -34 -3 -63 -18
-52 -17 -66 2 -30 17 31 29 26 40 -18 5 -21 4 -27 -5 -22 -8 6 -10 0 -5 -18 8
-34 -18 -35 -51 -1 -28 27 -32 73 -14 138 12 43 21 47 36 14z m-2028 -18 c16
-48 14 -71 -6 -67 -14 2 -19 15 -21 51 -4 54 11 62 27 16z m69 -46 c-7 -15
-17 -27 -23 -26 -19 4 -15 38 7 73 l23 35 3 -27 c2 -15 -3 -40 -10 -55z m2262
27 c7 -16 9 -37 6 -47 -11 -28 -37 7 -43 58 -6 39 -4 43 9 31 9 -7 21 -26 28
-42z m68 3 c-2 -36 -7 -49 -20 -51 -21 -4 -23 19 -7 67 16 46 31 38 27 -16z
m-2276 -19 c-6 -29 -13 -40 -30 -42 -25 -4 -22 14 11 61 24 35 29 30 19 -19z
m-176 -10 c-6 -17 -36 -19 -36 -2 0 6 8 20 18 31 15 17 17 17 20 3 2 -10 1
-24 -2 -32z m2333 12 c12 -18 21 -36 21 -40 0 -12 -41 -6 -44 7 -23 71 -11 88
23 33z m181 -13 c0 -29 -35 -8 -38 22 -4 30 -4 30 17 11 12 -11 21 -25 21 -33z
m-2256 -16 c11 -41 7 -50 -18 -41 -11 4 -16 18 -16 46 0 50 21 47 34 -5z
m1999 6 c4 -20 5 -38 4 -39 -1 -1 -12 -5 -24 -8 -19 -6 -23 -3 -23 13 0 24 20
71 30 71 4 0 10 -17 13 -37z m-1913 -20 c0 -43 -14 -59 -40 -47 l-22 10 27 32
c15 18 29 32 31 32 2 0 4 -12 4 -27z m1820 5 c24 -26 26 -46 4 -55 -20 -7 -34
13 -34 50 0 33 3 33 30 5z m-2200 -11 c47 -9 136 -23 198 -31 85 -12 127 -23
170 -44 55 -29 57 -31 55 -68 -2 -21 1 -53 6 -71 5 -18 7 -33 5 -33 -3 0 -31
9 -62 19 -32 11 -123 27 -202 36 -157 18 -205 27 -262 52 -37 15 -37 16 -35
72 1 31 -2 64 -7 75 -10 21 -19 22 134 -7z m2690 9 c0 -8 -5 -18 -11 -22 -11
-6 -8 -55 5 -86 16 -37 -110 -74 -336 -97 -95 -10 -158 -24 -209 -45 -13 -6
-15 3 -15 64 1 66 3 73 26 86 62 34 136 54 263 69 75 9 158 22 184 30 66 18
93 18 93 1z m-2544 -227 c135 -6 182 -12 227 -29 52 -20 57 -24 62 -58 4 -20
10 -47 16 -60 15 -38 11 -41 -43 -26 -36 9 -112 14 -239 14 -139 0 -199 4
-238 16 l-53 15 6 39 c4 27 0 52 -14 85 -11 26 -20 50 -20 55 0 4 28 -4 63
-18 54 -22 84 -26 233 -33z m2533 -9 c-17 -40 -20 -56 -11 -74 26 -58 -43 -76
-287 -76 -129 0 -202 -5 -239 -14 -54 -15 -54 -15 -47 7 4 12 11 43 17 69 10
46 13 48 66 68 45 17 93 23 233 30 156 7 183 11 230 32 30 14 55 21 57 17 2
-4 -7 -31 -19 -59z m-2034 -58 c16 -31 61 -90 99 -129 93 -99 179 -151 331
-205 l40 -14 7 -94 c6 -70 4 -96 -5 -102 -27 -17 -41 -1 -63 76 -25 87 -37
107 -56 88 -9 -9 -6 -30 10 -90 12 -44 22 -84 22 -89 0 -5 -15 -14 -34 -20
l-35 -11 -48 120 c-47 117 -64 141 -84 121 -7 -7 6 -51 40 -134 47 -115 52
-139 32 -139 -5 0 -30 36 -57 80 -53 87 -71 101 -83 68 -8 -22 -8 -21 -26 8
-10 16 -40 50 -67 76 -27 27 -48 56 -48 68 0 12 -16 37 -35 57 -34 35 -55 85
-55 131 0 13 -5 33 -12 45 -17 33 -27 88 -21 119 5 27 8 28 62 28 l56 0 30
-58z m1411 5 c-2 -29 -10 -66 -18 -82 -9 -17 -16 -44 -16 -61 -1 -43 -26 -100
-56 -127 -14 -12 -29 -37 -33 -56 -6 -22 -24 -47 -51 -69 l-42 -35 0 27 c0 16
-6 26 -14 26 -20 0 -26 -11 -46 -89 -12 -48 -26 -75 -50 -99 -18 -18 -34 -31
-36 -29 -3 2 10 68 27 146 23 106 28 146 20 154 -18 18 -36 -11 -51 -78 -41
-200 -40 -196 -69 -193 -29 3 -29 2 -17 121 6 57 5 68 -9 74 -25 9 -32 -11
-40 -99 -7 -79 -12 -86 -49 -72 -18 7 -20 49 -10 150 l6 60 47 19 c137 56 283
182 351 302 l35 62 62 1 62 0 -3 -53z m-1871 -129 c172 2 236 -1 254 -10 24
-13 66 -112 55 -130 -3 -4 -38 -8 -77 -8 -40 0 -124 -7 -187 -16 -117 -16
-222 -14 -272 5 -25 9 -28 16 -28 53 0 30 -8 55 -26 82 l-27 39 39 -9 c21 -5
143 -8 269 -6z m2459 -28 c-21 -31 -25 -47 -20 -74 6 -32 4 -37 -26 -52 -47
-25 -157 -29 -281 -10 -59 9 -140 16 -181 16 -40 0 -75 2 -78 5 -3 4 2 32 11
63 25 84 25 84 286 77 140 -4 229 -3 245 4 14 5 35 10 48 10 l22 1 -26 -40z
m-2101 -152 c9 -5 17 -19 17 -32 0 -13 10 -35 21 -50 12 -15 19 -29 17 -32 -3
-2 -41 -9 -84 -14 -44 -5 -119 -21 -169 -35 -104 -29 -228 -42 -266 -27 -20 8
-28 20 -32 48 -4 26 -20 52 -49 82 l-43 44 30 -6 c90 -19 144 -18 280 8 202
37 231 39 278 14z m1746 -15 c132 -25 188 -26 276 -7 l30 7 -42 -46 c-26 -28
-44 -59 -49 -82 -5 -26 -13 -39 -31 -46 -44 -17 -130 -9 -250 22 -65 16 -151
34 -191 39 -40 4 -76 11 -79 14 -4 3 1 14 11 25 9 10 21 35 27 55 17 62 57 64
298 19z m-842 -114 c-3 -50 -8 -93 -10 -96 -3 -2 -17 -1 -32 3 l-27 7 4 79 c5
82 13 98 52 98 18 0 19 -6 13 -91z m-233 75 c13 -5 16 -23 16 -90 l0 -84 -30
0 c-29 0 -30 2 -30 44 0 24 -3 64 -6 90 -6 42 -5 46 14 46 11 0 27 -3 36 -6z
m126 -84 l0 -80 -30 0 c-29 0 -30 1 -30 49 0 27 -3 63 -6 80 -6 30 -6 31 30
31 l36 0 0 -80z m-669 -36 c12 -20 33 -46 47 -59 20 -18 22 -25 11 -28 -8 -3
-95 -30 -194 -62 -248 -78 -355 -86 -355 -24 0 11 -18 39 -40 63 -22 23 -37
46 -33 49 3 4 34 7 67 7 39 0 112 14 206 39 181 49 176 48 227 50 37 1 44 -3
64 -35z m1400 11 c52 -13 128 -33 169 -44 41 -11 103 -21 137 -22 35 -1 66 -6
69 -11 3 -4 -9 -20 -27 -35 -17 -15 -40 -47 -50 -71 l-19 -44 -73 4 c-52 3
-123 20 -257 62 -102 32 -192 60 -200 63 -12 4 -11 8 5 21 11 9 31 33 45 52
13 19 29 38 35 42 19 14 71 8 166 -17z m-1284 -146 c15 -16 49 -42 75 -56 27
-14 46 -29 43 -31 -3 -3 -37 -14 -75 -23 -38 -10 -123 -41 -188 -68 -219 -93
-332 -106 -332 -39 0 9 -18 35 -41 56 l-40 39 53 6 c56 7 171 44 301 97 65 26
118 41 169 49 5 1 20 -13 35 -30z m1237 -41 c88 -33 191 -65 230 -72 l70 -11
-30 -23 c-16 -13 -38 -42 -49 -65 -18 -37 -25 -42 -57 -45 -53 -4 -142 20
-277 77 -64 28 -147 58 -185 69 -39 10 -71 23 -73 28 -2 6 14 18 35 27 21 9
53 33 71 52 29 32 36 35 69 29 20 -4 109 -34 196 -66z m-1042 -122 l48 -54
-38 -12 c-20 -7 -87 -38 -149 -70 -114 -59 -207 -94 -278 -104 -46 -7 -54 -3
-75 39 -15 28 -38 44 -85 61 -15 5 1 12 57 25 42 10 127 41 190 70 131 60 234
99 263 99 12 0 40 -23 67 -54z m818 -3 c58 -25 136 -59 173 -75 37 -16 96 -34
130 -40 l61 -11 -44 -21 c-28 -13 -50 -32 -59 -51 -19 -41 -30 -46 -79 -40
-65 9 -141 38 -270 103 -64 33 -134 65 -154 71 l-38 13 48 54 c45 53 48 55 87
49 22 -3 87 -27 145 -52z m-244 -84 c6 -10 -55 -39 -81 -39 -20 0 -20 36 1 48
18 10 72 4 80 -9z m-467 -8 c19 -34 -18 -42 -70 -16 -38 20 -29 35 21 35 28 0
42 -5 49 -19z m-93 -16 c16 -12 16 -14 3 -15 -9 0 -22 7 -29 15 -16 19 0 19
26 0z m580 0 c-11 -8 -25 -15 -30 -15 -6 0 -2 7 8 15 11 8 25 15 30 15 6 0 2
-7 -8 -15z m-610 -22 c-8 -8 -36 5 -36 17 0 7 6 7 21 0 11 -7 18 -14 15 -17z
m649 8 c-3 -6 -14 -11 -23 -11 -15 1 -15 2 2 15 21 16 32 13 21 -4z m-690 -11
c3 -5 2 -10 -4 -10 -5 0 -13 5 -16 10 -3 6 -2 10 4 10 5 0 13 -4 16 -10z m720
0 c-3 -5 -11 -10 -16 -10 -6 0 -7 5 -4 10 3 6 11 10 16 10 6 0 7 -4 4 -10z
m-745 -20 c0 -5 -4 -10 -9 -10 -6 0 -13 5 -16 10 -3 6 1 10 9 10 9 0 16 -4 16
-10z m375 -3 c44 0 127 3 185 7 81 6 114 4 145 -7 36 -13 40 -18 43 -53 2 -24
16 -55 38 -86 52 -70 45 -83 -42 -83 -77 0 -107 -14 -102 -48 5 -31 24 -31 23
0 0 28 1 28 65 29 88 1 88 1 100 24 11 21 0 50 -42 102 -12 15 -18 31 -14 35
16 16 160 9 197 -10 34 -17 37 -21 37 -65 l0 -47 -47 2 -46 2 46 -9 c59 -10
86 -25 94 -50 9 -29 -18 -66 -52 -73 -40 -8 -122 12 -145 35 -18 18 -19 22 -5
36 18 17 102 22 152 9 l30 -8 -25 15 c-14 9 -49 15 -80 16 -49 0 -66 -6 -130
-45 -105 -62 -170 -61 -170 5 0 46 25 68 87 76 48 6 58 4 71 -12 13 -18 14
-18 10 1 -6 37 -49 41 -181 15 -179 -35 -286 -37 -446 -6 -151 30 -180 31
-207 12 -15 -12 -17 -17 -7 -27 10 -10 15 -9 26 5 11 15 21 17 59 11 26 -4 53
-14 62 -24 23 -25 29 -64 13 -85 -24 -32 -79 -23 -165 29 -67 39 -83 45 -134
45 -32 0 -58 -4 -58 -9 0 -5 17 -7 39 -4 46 6 111 -13 111 -33 0 -37 -129 -75
-177 -52 -42 20 -45 73 -6 104 15 13 22 23 15 24 -10 0 -10 5 -2 20 6 11 8 30
5 43 -6 21 0 27 46 47 41 17 66 21 111 18 32 -2 64 -10 71 -17 10 -10 1 -11
-43 -7 -51 5 -52 5 -16 -4 58 -15 59 -24 1 -16 -36 5 -46 4 -35 -3 8 -6 25
-11 38 -11 12 0 22 -5 22 -11 0 -7 -15 -9 -42 -4 -31 4 -39 3 -28 -4 8 -6 23
-11 33 -11 9 0 17 -5 17 -10 0 -6 -11 -8 -26 -4 -19 5 -25 4 -20 -5 4 -6 13
-11 21 -11 8 0 16 -4 19 -9 3 -5 -24 -7 -62 -5 l-67 3 58 -8 c40 -6 74 -19
112 -45 61 -41 77 -45 50 -16 -23 26 -8 26 25 0 33 -26 80 -27 80 -1 0 33 -29
46 -104 46 -86 0 -95 15 -45 78 23 28 35 56 39 86 7 62 38 73 185 64 61 -3
146 -6 190 -6z m405 9 c0 -3 -4 -8 -10 -11 -5 -3 -10 -1 -10 4 0 6 5 11 10 11
6 0 10 -2 10 -4z m-805 -27 c11 -17 0 -20 -21 -4 -17 13 -17 14 -2 15 9 0 20
-5 23 -11z m821 -4 c-21 -16 -32 -13 -21 4 3 6 14 11 23 11 15 -1 15 -2 -2
-15z m-835 -25 c13 -10 21 -19 17 -20 -14 0 -58 23 -58 32 0 14 16 9 41 -12z
m879 15 c0 -6 -56 -35 -67 -35 -13 1 41 40 55 40 6 0 12 -2 12 -5z m-240 -187
c-66 -31 -603 -218 -609 -213 -2 3 -2 7 0 10 3 2 144 54 315 114 294 104 392
134 294 89z m-435 2 c-28 -12 -37 -12 -30 0 3 6 16 10 28 9 21 0 21 -1 2 -9z
m45 -14 c-38 -21 -70 -29 -70 -18 0 12 46 30 75 31 17 0 17 -2 -5 -13z m75 -5
c-6 -5 -35 -17 -65 -26 -30 -10 -62 -20 -70 -23 -11 -4 -12 -2 -4 7 11 12 110
50 134 51 8 0 10 -3 5 -9z m195 5 c0 -2 -33 -15 -72 -29 -40 -14 -151 -53
-247 -86 -149 -53 -199 -66 -180 -47 2 2 108 40 234 85 207 72 265 89 265 77z
m-229 -51 c-117 -42 -161 -52 -110 -25 39 22 183 68 209 69 14 0 -31 -20 -99
-44z m349 15 c26 -16 3 -21 -31 -6 -31 13 -32 14 -9 15 14 0 32 -3 40 -9z
m-11 -31 c24 -11 42 -21 39 -24 -7 -7 -128 38 -128 48 0 10 28 2 89 -24z m28
-40 c154 -53 160 -56 151 -64 -5 -6 -277 87 -306 105 -36 21 13 8 155 -41z
m-647 21 c-19 -13 -30 -13 -30 0 0 6 10 10 23 10 18 0 19 -2 7 -10z m617 -41
c154 -53 202 -74 148 -65 -48 8 -342 115 -318 115 12 1 88 -22 170 -50z m-582
21 c-11 -5 -29 -9 -40 -9 -17 -1 -17 1 -5 9 8 5 26 9 40 9 23 0 23 -1 5 -9z
m785 0 c12 -8 12 -10 -5 -10 -11 0 -27 5 -35 10 -12 8 -12 10 5 10 11 0 27 -5
35 -10z m-755 -20 c-56 -22 -65 -24 -65 -11 0 10 56 29 90 30 17 0 10 -6 -25
-19z m730 -1 c21 -8 25 -13 14 -16 -9 -2 -38 5 -65 17 -46 19 -47 20 -14 16
19 -2 49 -10 65 -17z"/>
<path d="M1473 2832 l-22 -52 -53 0 -53 0 42 -35 c39 -33 41 -37 32 -68 -18
-64 -14 -70 33 -41 l42 27 38 -22 c20 -11 39 -21 42 -21 3 0 3 21 -1 47 -6 45
-5 48 33 80 l39 33 -45 0 c-56 0 -63 5 -87 59 l-19 45 -21 -52z"/>
<path d="M1450 2396 c0 -3 31 -25 69 -50 82 -55 198 -175 240 -248 47 -82 63
-149 59 -248 -3 -76 -7 -93 -33 -136 -17 -27 -43 -55 -58 -64 l-27 -15 -177
178 -178 178 51 45 c52 45 52 45 42 85 -6 22 -18 44 -27 48 -9 5 -52 12 -97
16 l-80 7 -112 -102 c-62 -57 -112 -108 -112 -115 0 -18 93 -102 134 -121 l35
-17 47 42 c26 22 50 41 54 41 11 0 300 -299 300 -311 0 -12 -61 13 -101 41
-16 12 -29 29 -29 39 0 20 -19 41 -38 41 -26 0 -110 -64 -125 -96 -9 -18 -40
-51 -70 -73 -71 -52 -97 -86 -97 -125 0 -51 20 -70 65 -63 50 8 72 30 105 102
32 70 94 135 114 120 95 -72 175 -105 256 -105 43 0 49 -4 105 -61 77 -77 90
-85 119 -65 44 28 40 53 -21 117 l-56 58 33 38 c75 84 106 221 80 346 -35 169
-185 356 -351 436 -76 36 -119 50 -119 37z"/>
</g>
</svg>
